<svg width="178" height="52" viewBox="0 0 178 52" fill="none" xmlns="http://www.w3.org/2000/svg">
<path d="M0 6.93333C0 3.10416 3.14993 0 7.03557 0H170.964C174.85 0 178 3.10416 178 6.93333V45.0667C178 48.8958 174.85 52 170.964 52H7.03557C3.14993 52 0 48.8958 0 45.0667V6.93333Z" fill="white"/>
<path fill-rule="evenodd" clip-rule="evenodd" d="M0 45.0667V6.93333C0 3.10416 3.14993 0 7.03557 0H170.964C174.85 0 178 3.10416 178 6.93333V45.0667C178 48.8958 174.85 52 170.964 52H7.03557C3.14993 52 0 48.8958 0 45.0667ZM1.05534 45.0667V6.93333C1.05534 3.67854 3.73278 1.04 7.03557 1.04H170.964C174.267 1.04 176.945 3.67853 176.945 6.93333V45.0667C176.945 48.3215 174.267 50.96 170.964 50.96H7.03557C3.73278 50.96 1.05534 48.3215 1.05534 45.0667Z" fill="black" fill-opacity="0.1"/>
<path d="M40.2251 27.0591C40.2069 24.0114 41.6082 21.7145 44.4378 20.0208C42.8552 17.7864 40.4609 16.5575 37.3048 16.3207C34.3164 16.0883 31.047 18.0367 29.8498 18.0367C28.5846 18.0367 25.6915 16.4011 23.4152 16.4011C18.7173 16.4726 13.7246 20.0923 13.7246 27.4568C13.7246 29.6331 14.1282 31.8809 14.9354 34.1957C16.0146 37.2434 19.9053 44.7107 23.9638 44.59C26.0861 44.5408 27.587 43.1064 30.3486 43.1064C33.0286 43.1064 34.4162 44.59 36.7833 44.59C40.8781 44.5319 44.397 37.7439 45.4218 34.6873C39.9303 32.1356 40.2251 27.2155 40.2251 27.0591ZM35.4592 13.4294C37.7582 10.7392 37.5496 8.29035 37.4816 7.41C35.4501 7.52619 33.1012 8.77297 31.7634 10.3058C30.2897 11.9503 29.4236 13.9835 29.6095 16.276C31.8042 16.4413 33.8086 15.3286 35.4592 13.4294Z" fill="black"/>
<path d="M55.7238 15.5838H56.8506C57.9389 15.5838 58.5765 16.0658 58.5765 16.8783V16.8892C58.5765 17.6421 57.9059 18.135 56.8836 18.135C55.8392 18.135 55.1741 17.7288 55.0862 17.0083L55.0807 16.965H53.877L53.8824 17.03C53.9649 18.3192 55.1302 19.1967 56.8836 19.1967C58.582 19.1967 59.8352 18.2325 59.8352 16.9433V16.9325C59.8352 15.8817 59.1811 15.1396 58.1203 15.0096V14.9663C58.9997 14.7658 59.5934 14.04 59.5934 13.1733V13.1625C59.5934 11.9546 58.505 11.1204 56.911 11.1204C55.2511 11.1204 54.1683 11.9275 54.0858 13.2492L54.0803 13.325H55.2621L55.2676 13.2492C55.361 12.5775 55.9382 12.1821 56.8726 12.1821C57.8235 12.1821 58.3731 12.5992 58.3731 13.2925V13.3033C58.3731 14.0508 57.763 14.5654 56.8176 14.5654H55.7238V15.5838Z" fill="black"/>
<path d="M63.8162 19.1696C64.5858 19.1696 65.2508 18.7796 65.5861 18.1675H65.6136V19.0667H66.8009V15.1396C66.8009 13.9967 65.9049 13.26 64.4923 13.26C63.0687 13.26 62.2058 14.0129 62.1233 14.9933L62.1178 15.0529H63.2391L63.2501 15.0042C63.349 14.5492 63.7723 14.2296 64.4593 14.2296C65.1959 14.2296 65.6136 14.6088 65.6136 15.2371V15.665L64.0361 15.7571C62.6675 15.8383 61.887 16.445 61.887 17.4363V17.4471C61.887 18.4708 62.662 19.1696 63.8162 19.1696ZM63.0852 17.42V17.4092C63.0852 16.9271 63.481 16.6183 64.1955 16.575L65.6136 16.4883V16.9325C65.6136 17.6746 64.976 18.2325 64.1405 18.2325C63.5029 18.2325 63.0852 17.9183 63.0852 17.42Z" fill="black"/>
<path d="M73.1234 14.3V13.3683H69.2923V19.0667H70.4796V14.3H73.1234Z" fill="black"/>
<path d="M75.3566 20.9625H76.5438V18.1079H76.5713C76.9121 18.7688 77.5772 19.1804 78.3961 19.1804C79.8472 19.1804 80.7981 18.0375 80.7981 16.2229V16.2175C80.7981 14.3975 79.8527 13.26 78.3797 13.26C77.5552 13.26 76.9176 13.6717 76.5713 14.3488H76.5438V13.3683H75.3566V20.9625ZM78.0719 18.1729C77.1759 18.1729 76.5383 17.4038 76.5383 16.2229V16.2175C76.5383 15.0313 77.1704 14.2621 78.0719 14.2621C79.0063 14.2621 79.5889 15.0042 79.5889 16.2175V16.2229C79.5889 17.4254 79.0063 18.1729 78.0719 18.1729Z" fill="black"/>
<path d="M83.5864 20.9679C84.7187 20.9679 85.3233 20.5129 85.7521 19.3321L87.9067 13.3683H86.6535L85.1969 18.005H85.1584L83.7019 13.3683H82.4157L84.5208 19.0721L84.4219 19.3429C84.224 19.8954 83.9162 20.0417 83.3556 20.0417C83.1962 20.0417 83.0588 20.02 82.9653 19.9983V20.9138C83.1082 20.9408 83.3556 20.9679 83.5864 20.9679Z" fill="black"/>
<path d="M91.9867 19.1804C93.4048 19.1804 94.3447 18.4708 94.3447 17.4092V17.3983C94.3447 16.7321 93.927 16.2771 93.1629 16.1254V16.0821C93.784 15.9413 94.1853 15.4592 94.1853 14.8471V14.8363C94.1853 13.8613 93.3718 13.26 92.0416 13.26C90.739 13.26 89.887 13.8667 89.7496 14.8796L89.7441 14.9229H90.8764L90.8819 14.885C90.9698 14.4517 91.404 14.1863 92.0252 14.1863C92.6518 14.1863 93.0255 14.4733 93.0255 14.9608V14.9717C93.0255 15.4808 92.6683 15.7408 91.9702 15.7408H91.1402V16.5913H91.9757C92.7782 16.5913 93.1629 16.8513 93.1629 17.3983V17.4092C93.1629 17.9292 92.7122 18.2488 91.9812 18.2488C91.3271 18.2488 90.8984 17.9996 90.7664 17.5392L90.75 17.485H89.5847L89.5902 17.5338C89.7056 18.5413 90.6345 19.1804 91.9867 19.1804Z" fill="black"/>
<path d="M96.6273 19.0667H97.7981L100.453 15.0638H100.502V19.0667H101.684V13.3683H100.513L97.8585 17.355H97.8036V13.3683H96.6273V19.0667Z" fill="black"/>
<path d="M108.595 13.3683H103.785V14.3H105.594V19.0667H106.786V14.3H108.595V13.3683Z" fill="black"/>
<path d="M113.06 19.1804C114.461 19.1804 115.357 18.3571 115.538 17.4525L115.555 17.3929H114.423L114.406 17.4363C114.258 17.8642 113.791 18.2217 113.087 18.2217C112.142 18.2217 111.542 17.5933 111.521 16.5154H115.615V16.12C115.615 14.4083 114.621 13.26 112.999 13.26C111.378 13.26 110.333 14.4517 110.333 16.2338V16.2392C110.333 18.0375 111.361 19.1804 113.06 19.1804ZM113.005 14.2188C113.78 14.2188 114.346 14.7008 114.439 15.6867H111.537C111.647 14.7333 112.235 14.2188 113.005 14.2188Z" fill="black"/>
<path d="M121.401 19.0667H124.061C125.314 19.0667 126.095 18.4275 126.095 17.4308V17.42C126.095 16.7213 125.6 16.2121 124.853 16.1146V16.0713C125.408 15.9683 125.837 15.4321 125.837 14.8417V14.8308C125.837 13.9263 125.155 13.3683 124.028 13.3683H121.401V19.0667ZM122.577 15.7192V14.235H123.781C124.353 14.235 124.66 14.4896 124.66 14.9608V14.9717C124.66 15.4754 124.331 15.7192 123.66 15.7192H122.577ZM122.577 18.2V16.5696H123.704C124.484 16.5696 124.875 16.8242 124.875 17.3713V17.3821C124.875 17.9238 124.512 18.2 123.841 18.2H122.577Z" fill="black"/>
<path d="M64.9928 37.6299H62.6638L61.388 33.661H56.9535L55.7382 37.6299H53.4707L57.8642 24.1178H60.5778L64.9928 37.6299ZM61.0034 31.9958L59.8497 28.4675C59.7276 28.1071 59.4989 27.2582 59.1615 25.9221H59.1205C58.9862 26.4967 58.7698 27.3456 58.4723 28.4675L57.3391 31.9958H61.0034Z" fill="black"/>
<path d="M76.2914 32.6386C76.2914 34.2956 75.8391 35.6054 74.9346 36.5669C74.1244 37.4229 73.1183 37.8503 71.9174 37.8503C70.6211 37.8503 69.6899 37.3894 69.1228 36.4674H69.0817V41.6H66.8952V31.0943C66.8952 30.0525 66.8675 28.9834 66.8142 27.8868H68.7371L68.8592 29.4311H68.9002C69.6294 28.2676 70.736 27.6868 72.221 27.6868C73.3819 27.6868 74.351 28.1406 75.1264 29.0494C75.9037 29.9591 76.2914 31.1552 76.2914 32.6386ZM74.0639 32.7178C74.0639 31.7695 73.8485 30.9877 73.4157 30.3724C72.943 29.7307 72.3081 29.4098 71.5123 29.4098C70.9729 29.4098 70.4826 29.5885 70.0447 29.9408C69.6058 30.2962 69.3186 30.7602 69.1843 31.3349C69.1166 31.603 69.0828 31.8223 69.0828 31.9949V33.6194C69.0828 34.3281 69.3022 34.9262 69.7412 35.4145C70.1801 35.9029 70.7503 36.1466 71.4518 36.1466C72.2753 36.1466 72.9163 35.8318 73.3747 35.2044C73.8342 34.5759 74.0639 33.7474 74.0639 32.7178Z" fill="black"/>
<path d="M87.6109 32.6386C87.6109 34.2956 87.1586 35.6054 86.253 36.5669C85.4439 37.4229 84.4378 37.8503 83.2369 37.8503C81.9405 37.8503 81.0093 37.3894 80.4432 36.4674H80.4022V41.6H78.2157V31.0943C78.2157 30.0525 78.188 28.9834 78.1347 27.8868H80.0576L80.1797 29.4311H80.2207C80.9488 28.2676 82.0554 27.6868 83.5414 27.6868C84.7014 27.6868 85.6705 28.1406 86.4479 29.0494C87.2222 29.9591 87.6109 31.1552 87.6109 32.6386ZM85.3833 32.7178C85.3833 31.7695 85.167 30.9877 84.7342 30.3724C84.2614 29.7307 83.6286 29.4098 82.8318 29.4098C82.2913 29.4098 81.8021 29.5885 81.3632 29.9408C80.9242 30.2962 80.6381 30.7602 80.5037 31.3349C80.4371 31.603 80.4022 31.8223 80.4022 31.9949V33.6194C80.4022 34.3281 80.6217 34.9262 81.0586 35.4145C81.4975 35.9019 82.0677 36.1466 82.7713 36.1466C83.5948 36.1466 84.2357 35.8318 84.6942 35.2044C85.1536 34.5759 85.3833 33.7474 85.3833 32.7178Z" fill="black"/>
<path d="M100.266 33.8409C100.266 34.9902 99.8634 35.9254 99.0542 36.6473C98.1651 37.4362 96.9272 37.8301 95.3366 37.8301C93.868 37.8301 92.6906 37.5499 91.7994 36.9884L92.306 35.1842C93.266 35.7588 94.3192 36.0472 95.4668 36.0472C96.2903 36.0472 96.9313 35.8624 97.3918 35.4948C97.8502 35.1273 98.0789 34.6338 98.0789 34.0185C98.0789 33.4703 97.8902 33.0083 97.5118 32.6336C97.1354 32.259 96.5067 31.9107 95.6289 31.5888C93.2393 30.7065 92.0456 29.414 92.0456 27.7143C92.0456 26.6035 92.464 25.6928 93.3019 24.9841C94.1367 24.2743 95.2504 23.92 96.6431 23.92C97.8851 23.92 98.9168 24.1342 99.7403 24.5617L99.1937 26.3263C98.4245 25.9121 97.5549 25.705 96.5816 25.705C95.8124 25.705 95.2115 25.8928 94.7807 26.2664C94.4166 26.6005 94.2341 27.0076 94.2341 27.4899C94.2341 28.024 94.4423 28.4657 94.8607 28.8129C95.2248 29.1337 95.8863 29.481 96.8462 29.8557C98.0205 30.3237 98.883 30.871 99.4378 31.4985C99.9906 32.1239 100.266 32.9067 100.266 33.8409Z" fill="black"/>
<path d="M107.495 29.5116H105.085V34.242C105.085 35.4452 105.51 36.0463 106.361 36.0463C106.752 36.0463 107.076 36.0128 107.332 35.9458L107.393 37.5896C106.962 37.749 106.395 37.8292 105.692 37.8292C104.829 37.8292 104.154 37.5683 103.667 37.0474C103.182 36.5255 102.938 35.6503 102.938 34.4207V29.5095H101.502V27.885H102.938V26.101L105.085 25.4593V27.885H107.495V29.5116Z" fill="black"/>
<path d="M118.369 32.6782C118.369 34.1758 117.937 35.4054 117.073 36.3669C116.167 37.3569 114.966 37.8503 113.467 37.8503C112.023 37.8503 110.874 37.3762 110.016 36.4279C109.159 35.4795 108.73 34.2824 108.73 32.8396C108.73 31.3298 109.171 30.0932 110.056 29.1316C110.939 28.1691 112.131 27.6878 113.629 27.6878C115.073 27.6878 116.235 28.162 117.112 29.1113C117.951 30.0322 118.369 31.2212 118.369 32.6782ZM116.101 32.7483C116.101 31.8497 115.907 31.079 115.514 30.4363C115.056 29.6586 114.4 29.2707 113.551 29.2707C112.672 29.2707 112.005 29.6596 111.546 30.4363C111.154 31.0801 110.96 31.8629 110.96 32.7889C110.96 33.6875 111.154 34.4581 111.546 35.0998C112.019 35.8775 112.68 36.2654 113.532 36.2654C114.367 36.2654 115.022 35.8694 115.495 35.0795C115.898 34.4246 116.101 33.6458 116.101 32.7483Z" fill="black"/>
<path d="M125.476 29.7906C125.26 29.751 125.029 29.7307 124.787 29.7307C124.018 29.7307 123.423 30.018 123.005 30.5937C122.641 31.1014 122.458 31.7431 122.458 32.5178V37.63H120.273L120.293 30.9552C120.293 29.8322 120.265 28.8098 120.211 27.8878H122.116L122.196 29.752H122.256C122.487 29.1113 122.851 28.5955 123.349 28.2087C123.836 27.8604 124.363 27.6868 124.93 27.6868C125.132 27.6868 125.314 27.701 125.476 27.7264V29.7906Z" fill="black"/>
<path d="M135.254 32.2975C135.254 32.6854 135.229 33.0123 135.174 33.2793H128.615C128.641 34.2419 128.958 34.978 129.567 35.4857C130.119 35.9395 130.834 36.167 131.712 36.167C132.683 36.167 133.569 36.0137 134.366 35.706L134.709 37.2087C133.778 37.6108 132.678 37.8108 131.41 37.8108C129.884 37.8108 128.686 37.3661 127.814 36.4777C126.944 35.5892 126.509 34.3962 126.509 32.8996C126.509 31.4304 126.914 30.2069 127.725 29.2312C128.574 28.1895 129.722 27.6686 131.166 27.6686C132.584 27.6686 133.658 28.1895 134.387 29.2312C134.964 30.0587 135.254 31.0822 135.254 32.2975ZM133.17 31.736C133.184 31.0943 133.041 30.54 132.745 30.0719C132.366 29.4698 131.785 29.1693 131.003 29.1693C130.288 29.1693 129.706 29.4627 129.262 30.0516C128.898 30.5197 128.682 31.0811 128.615 31.735H133.17V31.736Z" fill="black"/>
</svg>
