<svg width="178" height="53" viewBox="0 0 178 53" fill="none" xmlns="http://www.w3.org/2000/svg">
<path d="M0 7.06667C0 3.16385 3.14993 0 7.03557 0H170.964C174.85 0 178 3.16385 178 7.06667V45.9333C178 49.8361 174.85 53 170.964 53H7.03557C3.14993 53 0 49.8361 0 45.9333V7.06667Z" fill="white"/>
<path fill-rule="evenodd" clip-rule="evenodd" d="M0 45.9333V7.06667C0 3.16385 3.14993 0 7.03557 0H170.964C174.85 0 178 3.16385 178 7.06667V45.9333C178 49.8361 174.85 53 170.964 53H7.03557C3.14993 53 0 49.8361 0 45.9333ZM1.05534 45.9333V7.06667C1.05534 3.74928 3.73278 1.06 7.03557 1.06H170.964C174.267 1.06 176.945 3.74928 176.945 7.06667V45.9333C176.945 49.2507 174.267 51.94 170.964 51.94H7.03557C3.73278 51.94 1.05534 49.2507 1.05534 45.9333Z" fill="black" fill-opacity="0.1"/>
<path d="M90.1907 28.793C87.0231 28.793 84.4059 31.2777 84.4059 34.6845C84.4059 38.0635 86.9956 40.576 90.191 40.576C93.3861 40.576 95.9756 38.0913 95.9756 34.6845C95.9756 31.2777 93.3861 28.793 90.1907 28.793ZM90.1907 38.2316C88.4549 38.2316 86.9408 36.7512 86.9408 34.6582C86.9408 32.5361 88.4561 31.0847 90.1907 31.0847C91.9254 31.0847 93.4407 32.5361 93.4407 34.6582C93.4407 36.7512 91.9254 38.2316 90.1907 38.2316ZM77.6019 28.793C74.4065 28.793 71.8168 31.2777 71.8168 34.6845C71.8168 38.0635 74.4065 40.576 77.6019 40.576C80.797 40.576 83.3867 38.0913 83.3867 34.6845C83.3867 31.2777 80.797 28.793 77.6016 28.793H77.6019ZM77.6019 38.2316C75.8658 38.2316 74.3519 36.7512 74.3519 34.6582C74.3519 32.5361 75.8673 31.0847 77.6019 31.0847C79.3378 31.0847 80.8519 32.5361 80.8519 34.6582C80.8519 36.7512 79.3637 38.2316 77.6019 38.2316ZM62.6438 30.6081V33.0928H68.4833C68.3174 34.4888 67.8504 35.5219 67.1612 36.2205C66.3076 37.0857 64.9853 38.0356 62.6438 38.0356C59.0346 38.0356 56.2534 35.0761 56.2534 31.418C56.2534 27.7599 59.0361 24.7444 62.6438 24.7444C64.599 24.7444 66.0048 25.5265 67.0515 26.532L68.7861 24.7722C67.3256 23.3487 65.3705 22.26 62.6438 22.26C57.7123 22.26 53.5801 26.3639 53.5801 31.3624C53.5801 36.3611 57.7123 40.465 62.6438 40.465C65.3156 40.465 67.2997 39.5719 68.8971 37.8956C70.5222 36.2483 71.0181 33.9302 71.0181 32.0597C71.0181 31.4736 70.9635 30.9429 70.8799 30.4959L62.6438 30.6081V30.6081ZM123.853 32.5345C123.384 31.222 121.898 28.793 118.922 28.793C115.946 28.793 113.494 31.1667 113.494 34.6845C113.494 37.9788 115.946 40.576 119.197 40.576C121.842 40.576 123.357 38.9287 123.99 37.9788L122.035 36.6387C121.373 37.6165 120.492 38.2579 119.197 38.2579C117.902 38.2579 116.994 37.6718 116.414 36.4706L124.1 33.2041L123.853 32.5345V32.5345ZM116.029 34.5178C115.975 32.2554 117.765 31.0832 119.031 31.0832C120.051 31.0832 120.877 31.5858 121.18 32.3401L116.029 34.5178V34.5178ZM109.776 40.1856H112.311V22.9293H109.776V40.1856V40.1856ZM105.645 30.1055H105.563C104.984 29.4069 103.91 28.793 102.532 28.793C99.6394 28.793 97.0225 31.3902 97.0225 34.6845C97.0225 37.9788 99.6668 40.5485 102.532 40.5485C103.909 40.5485 104.983 39.9342 105.563 39.2078H105.645V40.0455C105.645 42.308 104.46 43.5077 102.559 43.5077C101.017 43.5077 100.052 42.3633 99.6668 41.4134L97.4638 42.3633C98.0966 43.9271 99.7778 45.8536 102.559 45.8536C105.534 45.8536 108.041 44.0663 108.041 39.7386V29.1556H105.645V30.1055V30.1055ZM102.752 38.2316C101.017 38.2316 99.5573 36.7512 99.5573 34.686C99.5573 32.6208 101.018 31.1123 102.752 31.1123C104.461 31.1123 105.838 32.6208 105.838 34.686C105.837 36.7234 104.46 38.2316 102.752 38.2316ZM135.671 22.9296H129.61V40.1856H132.145V33.6511H135.671C138.481 33.6511 141.235 31.5843 141.235 28.2903C141.235 24.996 138.481 22.9293 135.671 22.9293V22.9296ZM135.753 31.2514H132.171V25.3305H135.753C137.626 25.3305 138.728 26.9222 138.728 28.29C138.701 29.6304 137.627 31.2514 135.753 31.2514ZM151.345 28.7651C149.527 28.7651 147.626 29.575 146.855 31.418L149.087 32.3679C149.583 31.418 150.464 31.111 151.401 31.111C152.724 31.111 154.046 31.9206 154.073 33.3441V33.5123C153.604 33.2331 152.641 32.8415 151.429 32.8415C149.005 32.8415 146.552 34.2097 146.552 36.7234C146.552 39.0412 148.536 40.5206 150.74 40.5206C152.448 40.5206 153.384 39.7386 153.962 38.8177H154.045V40.158H156.496V33.5398C156.468 30.4968 154.238 28.7648 151.345 28.7648V28.7651ZM151.043 38.2038C150.216 38.2038 149.058 37.7843 149.058 36.7525C149.058 35.4121 150.49 34.9095 151.73 34.9095C152.832 34.9095 153.355 35.1608 154.045 35.4956C153.852 37.0872 152.502 38.2038 151.043 38.2038V38.2038ZM165.339 29.1571L162.446 36.6121H162.364L159.362 29.1568H156.636L161.153 39.5995L158.59 45.4356H161.235L168.148 29.1568H165.339L165.339 29.1571ZM142.641 40.1856H145.175V22.9293H142.641V40.1856Z" fill="black"/>
<path d="M61.2391 14.8414V17.4038H60.1852V15.9H55.3391V17.4038H54.2852V14.8414H55.0731C55.3358 14.4721 55.5295 13.9411 55.6543 13.2486C55.779 12.5495 55.8414 11.791 55.8414 10.9731V8.81637H60.461V14.8414H61.2391ZM59.3578 14.8414V9.87496H56.9348V11.1611C56.9348 11.8998 56.8757 12.5857 56.7575 13.2189C56.6458 13.8521 56.4751 14.3929 56.2453 14.8414H59.3578Z" fill="black"/>
<path d="M65.7113 16.0583C65.0284 16.0583 64.4079 15.8967 63.8497 15.5735C63.2915 15.2437 62.8516 14.7952 62.5298 14.228C62.2146 13.6608 62.057 13.0375 62.057 12.3582C62.057 11.6788 62.2146 11.0589 62.5298 10.4982C62.8516 9.93102 63.2915 9.48253 63.8497 9.15275C64.4079 8.82297 65.0284 8.65808 65.7113 8.65808C66.3942 8.65808 67.0115 8.82297 67.5631 9.15275C68.1212 9.48253 68.5612 9.93102 68.8829 10.4982C69.2047 11.0589 69.3656 11.6788 69.3656 12.3582C69.3656 13.0375 69.2047 13.6608 68.8829 14.228C68.5678 14.7952 68.1311 15.2437 67.5729 15.5735C67.0148 15.8967 66.3942 16.0583 65.7113 16.0583ZM65.7113 14.9997C66.1775 14.9997 66.6044 14.8876 66.9918 14.6633C67.3792 14.4391 67.6846 14.1291 67.9078 13.7334C68.1311 13.331 68.2427 12.8726 68.2427 12.3582C68.2427 11.8437 68.1311 11.3886 67.9078 10.9929C67.6846 10.5906 67.3792 10.2773 66.9918 10.053C66.6044 9.82879 66.1775 9.71667 65.7113 9.71667C65.2451 9.71667 64.8183 9.82879 64.4308 10.053C64.0434 10.2773 63.7348 10.5906 63.505 10.9929C63.2817 11.3886 63.1701 11.8437 63.1701 12.3582C63.1701 12.8726 63.2817 13.331 63.505 13.7334C63.7348 14.1291 64.0434 14.4391 64.4308 14.6633C64.8183 14.8876 65.2451 14.9997 65.7113 14.9997Z" fill="black"/>
<path d="M73.8593 16.0583C73.1763 16.0583 72.5525 15.8967 71.9878 15.5735C71.4231 15.2503 70.9798 14.8051 70.6581 14.2379C70.3363 13.6707 70.1754 13.0441 70.1754 12.3582C70.1754 11.6723 70.3363 11.0457 70.6581 10.4785C70.9798 9.91124 71.4231 9.46604 71.9878 9.14285C72.5525 8.81967 73.1763 8.65808 73.8593 8.65808C74.3911 8.65808 74.8738 8.75701 75.3072 8.95488C75.7471 9.15275 76.1346 9.43965 76.4694 9.8156L75.6815 10.5774C75.4385 10.2872 75.1693 10.0728 74.8738 9.93432C74.5783 9.78922 74.2401 9.71667 73.8593 9.71667C73.3865 9.71667 72.9531 9.82549 72.5591 10.0431C72.1717 10.2608 71.863 10.5708 71.6332 10.9731C71.4034 11.3689 71.2885 11.8305 71.2885 12.3582C71.2885 12.8858 71.4034 13.3508 71.6332 13.7531C71.863 14.1489 72.1717 14.4556 72.5591 14.6732C72.9531 14.8909 73.3865 14.9997 73.8593 14.9997C74.6472 14.9997 75.317 14.6699 75.8686 14.0104L76.6664 14.7821C76.325 15.1844 75.9146 15.4977 75.4352 15.7219C74.9559 15.9462 74.4305 16.0583 73.8593 16.0583Z" fill="black"/>
<path d="M79.3264 9.87496H77.3564V8.81637H82.3995V9.87496H80.4295V15.9H79.3264V9.87496Z" fill="black"/>
<path d="M84.2259 16.0583C83.983 16.0583 83.7761 16.0154 83.6054 15.9297V14.8513C83.8221 14.97 84.0191 15.0294 84.1964 15.0294C84.3737 15.0294 84.5149 14.9964 84.6199 14.9305C84.725 14.8579 84.8202 14.726 84.9056 14.5347L85.1518 14.0203L82.8076 8.81637H84.0388L85.6837 12.744H85.7428L87.3976 8.81637H88.6288L85.93 14.7722C85.733 15.2141 85.4933 15.5405 85.2109 15.7516C84.9351 15.9561 84.6068 16.0583 84.2259 16.0583Z" fill="black"/>
<path d="M89.5852 8.81637H94.8351V15.9H93.7319V9.87496H90.6883V15.9H89.5852V8.81637Z" fill="black"/>
<path d="M96.4435 8.81637H97.5466V11.7547H100.817V8.81637H101.91V15.9H100.817V12.8034H97.5466V15.9H96.4435V8.81637Z" fill="black"/>
<path d="M106.727 16.0583C106.044 16.0583 105.423 15.8967 104.865 15.5735C104.307 15.2437 103.867 14.7952 103.545 14.228C103.23 13.6608 103.072 13.0375 103.072 12.3582C103.072 11.6788 103.23 11.0589 103.545 10.4982C103.867 9.93102 104.307 9.48253 104.865 9.15275C105.423 8.82297 106.044 8.65808 106.727 8.65808C107.409 8.65808 108.027 8.82297 108.578 9.15275C109.136 9.48253 109.576 9.93102 109.898 10.4982C110.22 11.0589 110.381 11.6788 110.381 12.3582C110.381 13.0375 110.22 13.6608 109.898 14.228C109.583 14.7952 109.146 15.2437 108.588 15.5735C108.03 15.8967 107.409 16.0583 106.727 16.0583ZM106.727 14.9997C107.193 14.9997 107.62 14.8876 108.007 14.6633C108.394 14.4391 108.7 14.1291 108.923 13.7334C109.146 13.331 109.258 12.8726 109.258 12.3582C109.258 11.8437 109.146 11.3886 108.923 10.9929C108.7 10.5906 108.394 10.2773 108.007 10.053C107.62 9.82879 107.193 9.71667 106.727 9.71667C106.26 9.71667 105.833 9.82879 105.446 10.053C105.059 10.2773 104.75 10.5906 104.52 10.9929C104.297 11.3886 104.185 11.8437 104.185 12.3582C104.185 12.8726 104.297 13.331 104.52 13.7334C104.75 14.1291 105.059 14.4391 105.446 14.6633C105.833 14.8876 106.26 14.9997 106.727 14.9997Z" fill="black"/>
<path d="M113.95 8.81637H116.6C116.974 8.81637 117.319 8.89882 117.634 9.06371C117.956 9.2286 118.212 9.45614 118.402 9.74635C118.592 10.0366 118.688 10.3564 118.688 10.706C118.688 11.0556 118.599 11.359 118.422 11.6162C118.251 11.8734 118.024 12.068 117.742 12.1999V12.2593C118.097 12.3846 118.382 12.5923 118.599 12.8825C118.822 13.1727 118.934 13.5124 118.934 13.9015C118.934 14.2907 118.832 14.637 118.629 14.9403C118.432 15.2437 118.162 15.4812 117.821 15.6527C117.486 15.8176 117.118 15.9 116.718 15.9H113.95V8.81637ZM116.55 11.7844C116.865 11.7844 117.118 11.6854 117.309 11.4876C117.506 11.2897 117.604 11.0622 117.604 10.8049C117.604 10.5477 117.509 10.3235 117.319 10.1322C117.135 9.93432 116.892 9.83539 116.59 9.83539H115.053V11.7844H116.55ZM116.718 14.8711C117.053 14.8711 117.319 14.7656 117.516 14.5545C117.719 14.3435 117.821 14.0994 117.821 13.8224C117.821 13.5388 117.716 13.2948 117.506 13.0903C117.302 12.8792 117.026 12.7737 116.678 12.7737H115.053V14.8711H116.718Z" fill="black"/>
<path d="M37.5327 32.1824C41.7473 29.8365 44.9426 28.0492 45.218 27.9104C46.0988 27.4352 47.0088 26.1784 45.218 25.2022C44.6398 24.8952 41.5268 23.1632 37.5327 20.9301L31.9961 26.5978L37.5324 32.1824H37.5327Z" fill="#FFD900"/>
<path d="M31.9951 26.5979L14.3652 44.6084C14.7788 44.6641 15.246 44.5528 15.797 44.2458C16.9535 43.6044 29.212 36.8183 37.532 32.1837L31.9951 26.5979V26.5979Z" fill="#F43249"/>
<path d="M31.9968 26.5979L37.5331 20.9577C37.5331 20.9577 17.0388 9.62076 15.7985 8.95181C15.3319 8.67054 14.8083 8.58738 14.3398 8.67054L31.9968 26.5976V26.5979Z" fill="#00EE76"/>
<path d="M31.9952 26.598L14.3379 8.67096C13.6213 8.83881 13.0156 9.48055 13.0156 10.7925V42.4862C13.0156 43.6877 13.4843 44.5529 14.3651 44.6361L31.9949 26.5977L31.9952 26.598Z" fill="#00D3FF"/>
</svg>
